<mxfile host="app.diagrams.net" modified="2024-05-25T18:19:41.274Z" agent="Mozilla/5.0 (Windows NT 10.0; Win64; x64) AppleWebKit/537.36 (KHTML, like Gecko) Chrome/122.0.0.0 YaBrowser/24.4.0.0 Safari/537.36" etag="3TMxgHYES12xlz3rXv4U" version="24.4.8" type="device">
  <diagram id="f106602c-feb2-e66a-4537-3a34d633f6aa" name="Page-1">
    <mxGraphModel dx="1105" dy="605" grid="1" gridSize="10" guides="1" tooltips="1" connect="0" arrows="0" fold="1" page="1" pageScale="1" pageWidth="1169" pageHeight="827" background="none" math="0" shadow="0">
      <root>
        <mxCell id="0" />
        <mxCell id="1" parent="0" />
        <mxCell id="14" value="&lt;b&gt;Private Network&lt;/b&gt;" style="fillColor=#F6F6F6;strokeColor=none;shadow=0;gradientColor=none;fontSize=14;align=left;spacing=10;fontColor=#717171;9E9E9E;verticalAlign=top;spacingTop=-4;fontStyle=0;spacingLeft=40;html=1;container=0;" parent="1" vertex="1">
          <mxGeometry x="301.5" y="130" width="778.5" height="530" as="geometry" />
        </mxCell>
        <mxCell id="582" style="edgeStyle=elbowEdgeStyle;rounded=0;elbow=vertical;html=1;labelBackgroundColor=none;startArrow=blockThin;startFill=1;startSize=4;endArrow=blockThin;endFill=1;endSize=4;jettySize=auto;orthogonalLoop=1;strokeColor=#4284F3;strokeWidth=2;fontSize=12;fontColor=#000000;align=center;dashed=0;flowAnimation=1;" parent="1" source="566" target="uoHBkqAiXrJTnw-RRtxm-612" edge="1">
          <mxGeometry relative="1" as="geometry" />
        </mxCell>
        <mxCell id="566" value="Client" style="strokeColor=#dddddd;fillColor=#ffffff;shadow=1;strokeWidth=1;rounded=1;absoluteArcSize=1;arcSize=2;labelPosition=center;verticalLabelPosition=middle;align=center;verticalAlign=bottom;spacingLeft=0;fontColor=#999999;fontSize=12;whiteSpace=wrap;spacingBottom=2;html=1;" parent="1" vertex="1">
          <mxGeometry x="130" y="400" width="70" height="100" as="geometry" />
        </mxCell>
        <mxCell id="567" value="" style="dashed=0;connectable=0;html=1;fillColor=#757575;strokeColor=none;shape=mxgraph.gcp2.mobile_devices;part=1;" parent="566" vertex="1">
          <mxGeometry x="0.5" width="50" height="36.5" relative="1" as="geometry">
            <mxPoint x="-25" y="16.75" as="offset" />
          </mxGeometry>
        </mxCell>
        <mxCell id="uoHBkqAiXrJTnw-RRtxm-622" value="" style="strokeColor=#dddddd;shadow=1;strokeWidth=1;rounded=1;absoluteArcSize=1;arcSize=137;" parent="1" vertex="1">
          <mxGeometry x="659.25" y="525" width="160.5" height="60" as="geometry" />
        </mxCell>
        <mxCell id="uoHBkqAiXrJTnw-RRtxm-623" value="&lt;font color=&quot;#000000&quot;&gt;Administartion&lt;br&gt;Microservice&lt;/font&gt;" style="editableCssRules=.*;html=1;fontColor=#999999;shape=image;verticalLabelPosition=middle;verticalAlign=middle;labelPosition=right;align=left;spacingLeft=20;part=1;points=[];imageAspect=0;image=data:image/svg+xml,PHN2ZyB4bWxucz0iaHR0cDovL3d3dy53My5vcmcvMjAwMC9zdmciIHhtbG5zOnY9Imh0dHBzOi8vdmVjdGEuaW8vbmFubyIgd2lkdGg9IjIwLjAwMTA0NTIyNzA1MDc4IiBoZWlnaHQ9IjIwLjAwMTA0NTIyNzA1MDc4IiBmaWxsLXJ1bGU9ImV2ZW5vZGQiIHZpZXdCb3g9IjAgMCAyMC4wMDEwNDUyMjcwNTA3OCAyMC4wMDEwNDUyMjcwNTA3OCI+JiN4YTsJPHN0eWxlIHR5cGU9InRleHQvY3NzIj4mI3hhOwkuc3Qwe2ZpbGw6I2FlY2JmYTt9JiN4YTsJLnN0MXtmaWxsOiM2NjlkZjY7fSYjeGE7CS5zdDJ7ZmlsbDojNDI4NWY0O30mI3hhOwk8L3N0eWxlPiYjeGE7CTxwYXRoIGNsYXNzPSJzdDAiIGQ9Ik00LjczIDguODN2Mi42M2E0LjkxIDQuOTEgMCAwIDAgMS43MSAxLjc0VjguODN6Ii8+JiN4YTsJPHBhdGggY2xhc3M9InN0MSIgZD0iTTcuODkgNi40MXY3LjUzQTcuNjIgNy42MiAwIDAgMCA5IDE0YTggOCAwIDAgMCAxIDBWNi40MXoiLz4mI3hhOwk8cGF0aCBjbGFzcz0ic3QwIiBkPSJNMTEuNjQgOS44NnYzLjI5YTUgNSAwIDAgMCAxLjctMS44MlY5Ljg2eiIvPiYjeGE7CTxwYXRoIGNsYXNzPSJzdDIiIGQ9Ik0xNS43NCAxNC4zMmwtMS40MiAxLjQyYS40Mi40MiAwIDAgMCAwIC42bDMuNTQgMy41NGEuNDIuNDIgMCAwIDAgLjU5IDBsMS40My0xLjQzYS40Mi40MiAwIDAgMCAwLS41OWwtMy41NC0zLjU0YS40Mi40MiAwIDAgMC0uNiAwIi8+JiN4YTsJPHBhdGggY2xhc3M9InN0MSIgZD0iTTkgMGE5IDkgMCAxIDAgMCAxOEE5IDkgMCAxIDAgOSAwbTAgMTUuNjlhNi42OCA2LjY4IDAgMCAxIC4wMDctMTMuMzYgNi42OCA2LjY4IDAgMCAxIDQuNzI3IDExLjQwM0E2LjY4IDYuNjggMCAwIDEgOSAxNS42OSIvPiYjeGE7PC9zdmc+;" parent="uoHBkqAiXrJTnw-RRtxm-622" vertex="1">
          <mxGeometry width="30" height="30" relative="1" as="geometry">
            <mxPoint x="15" y="15" as="offset" />
          </mxGeometry>
        </mxCell>
        <mxCell id="15" value="" style="shape=mxgraph.gcp2.google_cloud_platform;fillColor=#F6F6F6;strokeColor=none;shadow=0;gradientColor=none;" parent="1" vertex="1">
          <mxGeometry x="320" y="138" width="23" height="20" as="geometry">
            <mxPoint x="20" y="10" as="offset" />
          </mxGeometry>
        </mxCell>
        <mxCell id="uoHBkqAiXrJTnw-RRtxm-612" value="" style="strokeColor=#dddddd;shadow=1;strokeWidth=1;rounded=1;absoluteArcSize=1;arcSize=2;" parent="1" vertex="1">
          <mxGeometry x="320" y="420" width="160" height="60" as="geometry" />
        </mxCell>
        <mxCell id="uoHBkqAiXrJTnw-RRtxm-613" value="gRPC-Gateway" style="editableCssRules=.*;html=1;fontColor=#999999;shape=image;verticalLabelPosition=middle;verticalAlign=middle;labelPosition=right;align=left;spacingLeft=20;part=1;points=[];imageAspect=0;image=data:image/svg+xml,PHN2ZyB4bWxucz0iaHR0cDovL3d3dy53My5vcmcvMjAwMC9zdmciIHhtbG5zOnY9Imh0dHBzOi8vdmVjdGEuaW8vbmFubyIgd2lkdGg9IjIwIiBoZWlnaHQ9IjIwIiB2aWV3Qm94PSIwIDAgMjAgMjAiPiYjeGE7CTxzdHlsZSB0eXBlPSJ0ZXh0L2NzcyI+JiN4YTsJLnN0MHtmaWxsOiM0Mjg1ZjQ7fSYjeGE7CS5zdDF7ZmlsbDojNjY5ZGY2O30mI3hhOwkuc3Qye2ZpbGw6I2FlY2JmYTt9JiN4YTsJPC9zdHlsZT4mI3hhOwk8cGF0aCBjbGFzcz0ic3QxIiBkPSJNMTYgMTBoMnY0aC0yem0tNyAwaDJ2NEg5em0tNyAwaDJ2NEgyeiIvPiYjeGE7CTxwYXRoIGNsYXNzPSJzdDAiIGQ9Ik05IDVoMnY0SDl6Ii8+JiN4YTsJPHBhdGggY2xhc3M9InN0MSIgZD0iTTIgOWgxNnYySDJ6Ii8+JiN4YTsJPHBhdGggY2xhc3M9InN0MiIgZD0iTTQgMGgxMnY1SDR6Ii8+JiN4YTsJPHBhdGggY2xhc3M9InN0MSIgZD0iTTEwIDBoNnY1aC02eiIvPiYjeGE7CTxwYXRoIGNsYXNzPSJzdDIiIGQ9Ik0xNCAxNGg2djZoLTZ6TTAgMTRoNnY2SDB6Ii8+JiN4YTsJPHBhdGggY2xhc3M9InN0MSIgZD0iTTMgMTRoM3Y2SDN6Ii8+JiN4YTsJPHBhdGggY2xhc3M9InN0MiIgZD0iTTcgMTRoNnY2SDd6Ii8+JiN4YTsJPHBhdGggY2xhc3M9InN0MSIgZD0iTTEwIDE0aDN2NmgtM3ptNyAwaDN2NmgtM3oiLz4mI3hhOzwvc3ZnPg==;" parent="uoHBkqAiXrJTnw-RRtxm-612" vertex="1">
          <mxGeometry width="30" height="30" relative="1" as="geometry">
            <mxPoint x="15" y="15" as="offset" />
          </mxGeometry>
        </mxCell>
        <mxCell id="uoHBkqAiXrJTnw-RRtxm-616" value="" style="strokeColor=#dddddd;shadow=1;strokeWidth=1;rounded=1;absoluteArcSize=1;arcSize=160;" parent="1" vertex="1">
          <mxGeometry x="320" y="294" width="160.5" height="60" as="geometry" />
        </mxCell>
        <mxCell id="uoHBkqAiXrJTnw-RRtxm-617" value="&lt;font color=&quot;#000000&quot;&gt;Authentication&lt;/font&gt;&lt;div&gt;&lt;font color=&quot;#000000&quot;&gt;Microservice&lt;/font&gt;&lt;/div&gt;" style="editableCssRules=.*;html=1;fontColor=#999999;shape=image;verticalLabelPosition=middle;verticalAlign=middle;labelPosition=right;align=left;spacingLeft=20;part=1;points=[];imageAspect=0;image=data:image/svg+xml,PHN2ZyB4bWxucz0iaHR0cDovL3d3dy53My5vcmcvMjAwMC9zdmciIHhtbG5zOnY9Imh0dHBzOi8vdmVjdGEuaW8vbmFubyIgd2lkdGg9IjIwIiBoZWlnaHQ9IjE2LjAyMDAwMDQ1Nzc2MzY3MiIgZmlsbC1ydWxlPSJldmVub2RkIiB2aWV3Qm94PSI4Ljk0MDY5NjcxNjMwODU5NGUtOCAwIDIwIDE2LjAyMDAwMDQ1Nzc2MzY3MiI+JiN4YTsJPHN0eWxlIHR5cGU9InRleHQvY3NzIj4mI3hhOwkuc3Qwe2ZpbGw6IzQyODVmNDt9JiN4YTsJLnN0MXtmaWxsOiNhZWNiZmE7fSYjeGE7CS5zdDJ7ZmlsbDojNjY5ZGY2O30mI3hhOwk8L3N0eWxlPiYjeGE7CTxwYXRoIGNsYXNzPSJzdDAiIGQ9Ik0xMi4zIDcuMjZsLTEuMjIgMS4yMkExLjcxIDEuNzEgMCAwIDEgMTAgMTEuNDlhMS43NCAxLjc0IDAgMCAxLTEuMzMtLjY0bC0xLjIyIDEuMjJhMy40MyAzLjQzIDAgMCAwIDUuOTg0LTEuMzgxQTMuNDMgMy40MyAwIDAgMCAxMi4zIDcuMjZ6Ii8+JiN4YTsJPHBhdGggY2xhc3M9InN0MSIgZD0iTTEwIDMuNTJhNi4yNSA2LjI1IDAgMCAwIDAgMTIuNSA2LjI1IDYuMjUgMCAwIDAgMC0xMi41bTAgMTAuNzRhNC40NSA0LjQ1IDAgMCAxLTMuMTU3LTcuNTk3QTQuNDUgNC40NSAwIDAgMSAxNC40NCA5LjgyIDQuNDQgNC40NCAwIDAgMSAxMCAxNC4yNiIvPiYjeGE7CTxwYXRoIGNsYXNzPSJzdDIiIGQ9Ik0xOS42MiA5LjE2bC0yLjU2LS44MWE3LjEgNy4xIDAgMCAxIC4xNyAxLjUzIDcuNjIgNy42MiAwIDAgMS0uMDggMS4wOGgyLjQ3YS40NC40NCAwIDAgMCAuMzgtLjQydi0xYS40NC40NCAwIDAgMC0uMzgtLjQyTTEwIDIuNzhhNy40OCA3LjQ4IDAgMCAxIDEuNS4xNUwxMC41OC4zOGMtLjA3LS4yMi0uMjEtLjM4LS40Mi0uMzhoLS4zOGEuNDUuNDUgMCAwIDAtLjQyLjM4bC0uOCAyLjU0QTcuNjQgNy42NCAwIDAgMSAxMCAyLjc4bS03LjIzIDcuMWE3LjEgNy4xIDAgMCAxIC4xNy0xLjUzbC0yLjU2LjgxYS40NC40NCAwIDAgMC0uMzguNDJ2MWEuNDQuNDQgMCAwIDAgLjM4LjQyaDIuNDdhNy42MiA3LjYyIDAgMCAxLS4wOC0xLjA4Ii8+JiN4YTsJPHBhdGggY2xhc3M9InN0MSIgZD0iTTEwIDcuMjZhMi41IDIuNSAwIDEgMCAwIDUgMi41IDIuNSAwIDEgMCAwLTV6bTAgMy43NWExLjI1IDEuMjUgMCAxIDEgMC0yLjUgMS4yNSAxLjI1IDAgMCAxIDEuMjUgMS4yNUExLjI1IDEuMjUgMCAwIDEgMTAgMTEuMDJ6Ii8+JiN4YTs8L3N2Zz4=;" parent="uoHBkqAiXrJTnw-RRtxm-616" vertex="1">
          <mxGeometry width="30" height="24" relative="1" as="geometry">
            <mxPoint x="15" y="18" as="offset" />
          </mxGeometry>
        </mxCell>
        <mxCell id="586" style="edgeStyle=elbowEdgeStyle;rounded=0;elbow=vertical;html=1;labelBackgroundColor=none;startArrow=blockThin;startFill=1;startSize=4;endArrow=blockThin;endFill=1;endSize=4;jettySize=auto;orthogonalLoop=1;strokeColor=#4284F3;strokeWidth=2;fontSize=12;fontColor=#000000;align=center;dashed=0;flowAnimation=1;" parent="1" source="uoHBkqAiXrJTnw-RRtxm-616" target="uoHBkqAiXrJTnw-RRtxm-612" edge="1">
          <mxGeometry relative="1" as="geometry">
            <mxPoint x="400.25" y="400" as="targetPoint" />
          </mxGeometry>
        </mxCell>
        <mxCell id="kMtp47e_Df8ArYtKkjIu-591" style="edgeStyle=elbowEdgeStyle;rounded=0;elbow=vertical;html=1;labelBackgroundColor=none;startArrow=blockThin;startFill=1;startSize=4;endArrow=blockThin;endFill=1;endSize=4;jettySize=auto;orthogonalLoop=1;strokeColor=#82b366;strokeWidth=2;fontSize=12;fontColor=#000000;align=center;dashed=0;exitX=0.492;exitY=1.077;exitDx=0;exitDy=0;exitPerimeter=0;fillColor=#d5e8d4;entryX=1.025;entryY=0.197;entryDx=0;entryDy=0;entryPerimeter=0;flowAnimation=1;gradientColor=#97d077;" parent="1" source="uoHBkqAiXrJTnw-RRtxm-620" edge="1">
          <mxGeometry relative="1" as="geometry">
            <mxPoint x="475" y="385" as="sourcePoint" />
            <mxPoint x="664.5" y="445.90999999999997" as="targetPoint" />
            <Array as="points">
              <mxPoint x="700" y="446" />
            </Array>
          </mxGeometry>
        </mxCell>
        <mxCell id="kMtp47e_Df8ArYtKkjIu-592" style="edgeStyle=elbowEdgeStyle;rounded=0;elbow=vertical;html=1;labelBackgroundColor=none;startArrow=blockThin;startFill=1;startSize=4;endArrow=blockThin;endFill=1;endSize=4;jettySize=auto;orthogonalLoop=1;strokeColor=#82b366;strokeWidth=2;fontSize=12;fontColor=#000000;align=center;dashed=0;exitX=0.496;exitY=-0.05;exitDx=0;exitDy=0;exitPerimeter=0;fillColor=#d5e8d4;entryX=1.039;entryY=0.827;entryDx=0;entryDy=0;entryPerimeter=0;flowAnimation=1;gradientColor=#97d077;" parent="1" edge="1">
          <mxGeometry relative="1" as="geometry">
            <mxPoint x="738.858" y="523.0000000000001" as="sourcePoint" />
            <mxPoint x="665.8999999999999" y="455.80999999999995" as="targetPoint" />
            <Array as="points">
              <mxPoint x="739" y="456" />
            </Array>
          </mxGeometry>
        </mxCell>
        <mxCell id="uoHBkqAiXrJTnw-RRtxm-620" value="" style="strokeColor=#dddddd;shadow=1;strokeWidth=1;rounded=1;absoluteArcSize=1;arcSize=135;" parent="1" vertex="1">
          <mxGeometry x="659.25" y="324" width="160.5" height="65" as="geometry" />
        </mxCell>
        <mxCell id="uoHBkqAiXrJTnw-RRtxm-621" value="&lt;font color=&quot;#000000&quot;&gt;Ticket Booking&lt;/font&gt;&lt;div&gt;&lt;font color=&quot;#000000&quot;&gt;Microservice&lt;/font&gt;&lt;/div&gt;" style="editableCssRules=.*;html=1;fontColor=#999999;shape=image;verticalLabelPosition=middle;verticalAlign=middle;labelPosition=right;align=left;spacingLeft=20;part=1;points=[];imageAspect=0;image=data:image/svg+xml,PHN2ZyB4bWxucz0iaHR0cDovL3d3dy53My5vcmcvMjAwMC9zdmciIHhtbG5zOnY9Imh0dHBzOi8vdmVjdGEuaW8vbmFubyIgd2lkdGg9IjE0LjUxOTk5OTUwNDA4OTM1NSIgaGVpZ2h0PSIyMCIgdmlld0JveD0iMCAwIDE0LjUxOTk5OTUwNDA4OTM1NSAyMCI+JiN4YTsJPHN0eWxlIHR5cGU9InRleHQvY3NzIj4mI3hhOwkuc3Qwe2ZpbGwtcnVsZTpldmVub2RkfSYjeGE7CS5zdDF7ZmlsbDojNjY5ZGY2O30mI3hhOwkuc3Qye2ZpbGw6I2FlY2JmYTt9JiN4YTsJLnN0M3tmaWxsOiM0Mjg1ZjQ7fSYjeGE7CTwvc3R5bGU+JiN4YTsJPGcgY2xhc3M9InN0MCI+JiN4YTsJCTxwYXRoIGNsYXNzPSJzdDEiIGQ9Ik03LjM3IDIuMDNsLTEuNzIuOTYgMS41MiAxLjUtLjAyIDEuNzMgMS4wMi4wMS4wMi0xLjczIDQuMjQgMi41Ni0uMDEgMS4wNyAxLjc3LjAzVjYuMTFMOS4wNSAzLjA0bC0uMjctLjk0eiIvPiYjeGE7CQk8cGF0aCBjbGFzcz0ic3QyIiBkPSJNNy4zNiAyLjAzbC0xLjQyLjM1LS4yOS42MUwuMzkgNS45Mi4zNiA3Ljk3IDIuMTQgOGwuMDItMS4wNyA0LjMxLTIuNDUtLjAyIDEuNzMuODYuMDEuMDYtNC4xOXoiLz4mI3hhOwkJPGcgY2xhc3M9InN0MSI+JiN4YTsJCQk8cGF0aCBkPSJNNy4zNiAyLjAzTDMuOTUgMCAyLjIxLjk1bDMuNDQgMi4wNCAxLjcyLS45NnptLjcxIDExLjc2bC0xLjcyLS4wMi0uMDIgMS43Mi44MiAyLjQ4IDEuNDItLjEyLjI5LS44NSA1LjI3LTIuOTMuMDMtMi4wOS0xLjc5LS4wMi0uMDIgMS4xLTQuMyAyLjQ1eiIvPiYjeGE7CQkJPHBhdGggZD0iTTcuMTUgMTcuOTdsLTMuNDYgMS45NGgtLjA1bC0xLjY2LS45OSAzLjQ5LTEuOTYgMS42OCAxLjAxeiIvPiYjeGE7CQk8L2c+JiN4YTsJCTxwYXRoIGNsYXNzPSJzdDMiIGQ9Ik0xMC44OC4wOWgtLjA1TDcuMzcgMi4wM2wxLjY4IDEuMDEgMy40OS0xLjk2ek0xMC42MiAyMGgtLjA1bC0zLjQyLTIuMDNoMCAwIDBsMS43Mi0uOTYgMy40NCAyLjA0eiIvPiYjeGE7CQk8cGF0aCBjbGFzcz0ic3QyIiBkPSJNLjMzIDEzLjg5di0yaDEuNzZsLS4wMSAxLjA0IDQuMjUgMi41Ni4wMi0xLjcyLjg2LjAxLS4wNiA0LjE4LTEuNjgtMXoiLz4mI3hhOwk8L2c+JiN4YTsJPGNpcmNsZSBjbGFzcz0ic3QyIiBjeD0iMTMuMzgiIGN5PSIxMC4wNCIgcj0iMS4xNCIvPiYjeGE7CTxjaXJjbGUgY2xhc3M9InN0MiIgY3g9IjEuMTQiIGN5PSI5Ljg4IiByPSIxLjE0Ii8+JiN4YTsJPGNpcmNsZSBjbGFzcz0ic3QyIiBjeD0iNy4zMiIgY3k9IjcuOTkiIHI9IjEuMTQiLz4mI3hhOwk8Y2lyY2xlIGNsYXNzPSJzdDIiIGN4PSI3LjIzIiBjeT0iMTIiIHI9IjEuMTQiLz4mI3hhOzwvc3ZnPg==;" parent="uoHBkqAiXrJTnw-RRtxm-620" vertex="1">
          <mxGeometry width="22" height="30" relative="1" as="geometry">
            <mxPoint x="19" y="15" as="offset" />
          </mxGeometry>
        </mxCell>
        <mxCell id="kMtp47e_Df8ArYtKkjIu-595" value="" style="rounded=0;whiteSpace=wrap;html=1;fillStyle=solid;" parent="1" vertex="1">
          <mxGeometry x="563" y="430" width="100" height="40" as="geometry" />
        </mxCell>
        <mxCell id="kMtp47e_Df8ArYtKkjIu-594" value="PROTECTED" style="text;html=1;align=center;verticalAlign=middle;whiteSpace=wrap;rounded=0;" parent="1" vertex="1">
          <mxGeometry x="562" y="436" width="100" height="30" as="geometry" />
        </mxCell>
        <mxCell id="kMtp47e_Df8ArYtKkjIu-596" value="" style="strokeColor=#dddddd;shadow=1;strokeWidth=1;rounded=1;absoluteArcSize=1;arcSize=2;" parent="1" vertex="1">
          <mxGeometry x="335.25" y="194" width="130" height="60" as="geometry" />
        </mxCell>
        <mxCell id="kMtp47e_Df8ArYtKkjIu-597" value="&lt;font color=&quot;#000000&quot;&gt;Users&lt;br&gt;Database&lt;/font&gt;&lt;div&gt;&lt;font color=&quot;#000000&quot;&gt;PSQL&lt;/font&gt;&lt;/div&gt;" style="editableCssRules=.*;html=1;fontColor=#999999;shape=image;verticalLabelPosition=middle;verticalAlign=middle;labelPosition=right;align=left;spacingLeft=20;part=1;points=[];imageAspect=0;image=data:image/svg+xml,PHN2ZyB4bWxucz0iaHR0cDovL3d3dy53My5vcmcvMjAwMC9zdmciIHhtbG5zOnY9Imh0dHBzOi8vdmVjdGEuaW8vbmFubyIgd2lkdGg9IjIwIiBoZWlnaHQ9IjIwIiB2aWV3Qm94PSIwIDAgMjAgMjAiPiYjeGE7CTxzdHlsZSB0eXBlPSJ0ZXh0L2NzcyI+JiN4YTsJLnN0MHtmaWxsOiM0Mjg1ZjQ7fSYjeGE7CS5zdDF7ZmlsbDojNjY5ZGY2O30mI3hhOwkuc3Qye2ZpbGw6I2FlY2JmYTt9JiN4YTsJLnN0M3tmaWxsOiNmZmY7fSYjeGE7CTwvc3R5bGU+JiN4YTsJPHBhdGggY2xhc3M9InN0MCIgZD0iTTkgNmgydjEwSDl6Ii8+JiN4YTsJPHBhdGggY2xhc3M9InN0MSIgZD0iTTIwIDE3SDB2MmgyMHoiLz4mI3hhOwk8cGF0aCBjbGFzcz0ic3QyIiBkPSJNMTIgMTZIOHY0aDR6TTAgMGgyMHY2SDB6Ii8+JiN4YTsJPHBhdGggY2xhc3M9InN0MSIgZD0iTTEwIDBoMTB2NkgxMHoiLz4mI3hhOwk8cGF0aCBjbGFzcz0ic3QzIiBkPSJNMiAyaDJ2MkgyeiIvPiYjeGE7CTxwYXRoIGNsYXNzPSJzdDIiIGQ9Ik0wIDhoMjB2NkgweiIvPiYjeGE7CTxwYXRoIGNsYXNzPSJzdDEiIGQ9Ik0xMCA4aDEwdjZIMTB6Ii8+JiN4YTsJPHBhdGggY2xhc3M9InN0MyIgZD0iTTIgMTBoMnYySDJ6Ii8+JiN4YTs8L3N2Zz4=;" parent="kMtp47e_Df8ArYtKkjIu-596" vertex="1">
          <mxGeometry width="30" height="30" relative="1" as="geometry">
            <mxPoint x="15" y="15" as="offset" />
          </mxGeometry>
        </mxCell>
        <mxCell id="kMtp47e_Df8ArYtKkjIu-598" style="edgeStyle=elbowEdgeStyle;rounded=0;elbow=vertical;html=1;labelBackgroundColor=none;startArrow=blockThin;startFill=1;startSize=4;endArrow=blockThin;endFill=1;endSize=4;jettySize=auto;orthogonalLoop=1;strokeColor=#4284F3;strokeWidth=2;fontSize=12;fontColor=#000000;align=center;dashed=0;entryX=0.497;entryY=-0.056;entryDx=0;entryDy=0;entryPerimeter=0;flowAnimation=1;" parent="1" target="uoHBkqAiXrJTnw-RRtxm-616" edge="1">
          <mxGeometry relative="1" as="geometry">
            <mxPoint x="399.76850000000013" y="256.3950266980153" as="sourcePoint" />
            <mxPoint x="410" y="414" as="targetPoint" />
          </mxGeometry>
        </mxCell>
        <mxCell id="kMtp47e_Df8ArYtKkjIu-599" value="HTTP" style="text;html=1;align=center;verticalAlign=middle;whiteSpace=wrap;rounded=0;" parent="1" vertex="1">
          <mxGeometry x="230" y="415" width="60" height="30" as="geometry" />
        </mxCell>
        <mxCell id="kMtp47e_Df8ArYtKkjIu-600" value="gRPC" style="text;html=1;align=center;verticalAlign=middle;whiteSpace=wrap;rounded=0;horizontal=0;" parent="1" vertex="1">
          <mxGeometry x="359" y="369" width="60" height="30" as="geometry" />
        </mxCell>
        <mxCell id="kMtp47e_Df8ArYtKkjIu-601" value="gRPC" style="text;html=1;align=center;verticalAlign=middle;whiteSpace=wrap;rounded=0;horizontal=0;" parent="1" vertex="1">
          <mxGeometry x="691" y="473" width="60" height="30" as="geometry" />
        </mxCell>
        <mxCell id="kMtp47e_Df8ArYtKkjIu-602" value="gRPC" style="text;html=1;align=center;verticalAlign=middle;whiteSpace=wrap;rounded=0;horizontal=0;" parent="1" vertex="1">
          <mxGeometry x="750" y="440" width="60" height="30" as="geometry" />
        </mxCell>
        <mxCell id="kMtp47e_Df8ArYtKkjIu-604" style="edgeStyle=elbowEdgeStyle;rounded=0;elbow=vertical;html=1;labelBackgroundColor=none;startArrow=blockThin;startFill=1;startSize=4;endArrow=blockThin;endFill=1;endSize=4;jettySize=auto;orthogonalLoop=1;strokeColor=#b85450;strokeWidth=2;fontSize=12;fontColor=#000000;align=center;dashed=0;entryX=1.007;entryY=0.498;entryDx=0;entryDy=0;entryPerimeter=0;exitX=-0.023;exitY=0.439;exitDx=0;exitDy=0;exitPerimeter=0;curved=0;flowAnimation=1;fillColor=#f8cecc;gradientColor=#ea6b66;" parent="1" source="kMtp47e_Df8ArYtKkjIu-594" target="uoHBkqAiXrJTnw-RRtxm-612" edge="1">
          <mxGeometry relative="1" as="geometry">
            <mxPoint x="410" y="364" as="sourcePoint" />
            <mxPoint x="410" y="430" as="targetPoint" />
          </mxGeometry>
        </mxCell>
        <mxCell id="kMtp47e_Df8ArYtKkjIu-605" style="edgeStyle=elbowEdgeStyle;rounded=0;elbow=vertical;html=1;labelBackgroundColor=none;startArrow=blockThin;startFill=1;startSize=4;endArrow=blockThin;endFill=1;endSize=4;jettySize=auto;orthogonalLoop=1;strokeColor=#82b366;strokeWidth=2;fontSize=12;fontColor=#000000;align=center;dashed=0;exitX=0.496;exitY=-0.05;exitDx=0;exitDy=0;exitPerimeter=0;fillColor=#d5e8d4;flowAnimation=1;" parent="1" edge="1">
          <mxGeometry relative="1" as="geometry">
            <mxPoint x="763.958" y="525.0000000000001" as="sourcePoint" />
            <mxPoint x="763" y="390" as="targetPoint" />
            <Array as="points">
              <mxPoint x="764.1" y="458" />
            </Array>
          </mxGeometry>
        </mxCell>
        <mxCell id="3YTMskbqXqQKalDewWyd-586" style="edgeStyle=elbowEdgeStyle;rounded=0;elbow=vertical;html=1;labelBackgroundColor=none;startArrow=blockThin;startFill=1;startSize=4;endArrow=blockThin;endFill=1;endSize=4;jettySize=auto;orthogonalLoop=1;strokeColor=#d79b00;strokeWidth=2;fontSize=12;fontColor=#000000;align=center;dashed=0;entryX=0.507;entryY=0.004;entryDx=0;entryDy=0;entryPerimeter=0;flowAnimation=1;exitX=1.001;exitY=0.445;exitDx=0;exitDy=0;exitPerimeter=0;fillColor=#ffcd28;gradientColor=#ffa500;" edge="1" parent="1" source="uoHBkqAiXrJTnw-RRtxm-616" target="kMtp47e_Df8ArYtKkjIu-595">
          <mxGeometry relative="1" as="geometry">
            <mxPoint x="409.76850000000013" y="266.3950266980153" as="sourcePoint" />
            <mxPoint x="410" y="301" as="targetPoint" />
            <Array as="points">
              <mxPoint x="550" y="320" />
            </Array>
          </mxGeometry>
        </mxCell>
        <mxCell id="3YTMskbqXqQKalDewWyd-587" value="gRPC" style="text;html=1;align=center;verticalAlign=middle;whiteSpace=wrap;rounded=0;horizontal=1;" vertex="1" parent="1">
          <mxGeometry x="525" y="290" width="60" height="30" as="geometry" />
        </mxCell>
        <mxCell id="3YTMskbqXqQKalDewWyd-588" value="" style="strokeColor=#dddddd;shadow=1;strokeWidth=1;rounded=1;absoluteArcSize=1;arcSize=2;" vertex="1" parent="1">
          <mxGeometry x="870" y="324" width="130" height="60" as="geometry" />
        </mxCell>
        <mxCell id="3YTMskbqXqQKalDewWyd-589" value="&lt;font color=&quot;#000000&quot;&gt;Ticket&lt;br&gt;Database&lt;/font&gt;&lt;div&gt;&lt;font color=&quot;#000000&quot;&gt;PSQL&lt;/font&gt;&lt;/div&gt;" style="editableCssRules=.*;html=1;fontColor=#999999;shape=image;verticalLabelPosition=middle;verticalAlign=middle;labelPosition=right;align=left;spacingLeft=20;part=1;points=[];imageAspect=0;image=data:image/svg+xml,PHN2ZyB4bWxucz0iaHR0cDovL3d3dy53My5vcmcvMjAwMC9zdmciIHhtbG5zOnY9Imh0dHBzOi8vdmVjdGEuaW8vbmFubyIgd2lkdGg9IjIwIiBoZWlnaHQ9IjIwIiB2aWV3Qm94PSIwIDAgMjAgMjAiPiYjeGE7CTxzdHlsZSB0eXBlPSJ0ZXh0L2NzcyI+JiN4YTsJLnN0MHtmaWxsOiM0Mjg1ZjQ7fSYjeGE7CS5zdDF7ZmlsbDojNjY5ZGY2O30mI3hhOwkuc3Qye2ZpbGw6I2FlY2JmYTt9JiN4YTsJLnN0M3tmaWxsOiNmZmY7fSYjeGE7CTwvc3R5bGU+JiN4YTsJPHBhdGggY2xhc3M9InN0MCIgZD0iTTkgNmgydjEwSDl6Ii8+JiN4YTsJPHBhdGggY2xhc3M9InN0MSIgZD0iTTIwIDE3SDB2MmgyMHoiLz4mI3hhOwk8cGF0aCBjbGFzcz0ic3QyIiBkPSJNMTIgMTZIOHY0aDR6TTAgMGgyMHY2SDB6Ii8+JiN4YTsJPHBhdGggY2xhc3M9InN0MSIgZD0iTTEwIDBoMTB2NkgxMHoiLz4mI3hhOwk8cGF0aCBjbGFzcz0ic3QzIiBkPSJNMiAyaDJ2MkgyeiIvPiYjeGE7CTxwYXRoIGNsYXNzPSJzdDIiIGQ9Ik0wIDhoMjB2NkgweiIvPiYjeGE7CTxwYXRoIGNsYXNzPSJzdDEiIGQ9Ik0xMCA4aDEwdjZIMTB6Ii8+JiN4YTsJPHBhdGggY2xhc3M9InN0MyIgZD0iTTIgMTBoMnYySDJ6Ii8+JiN4YTs8L3N2Zz4=;" vertex="1" parent="3YTMskbqXqQKalDewWyd-588">
          <mxGeometry width="30" height="30" relative="1" as="geometry">
            <mxPoint x="15" y="15" as="offset" />
          </mxGeometry>
        </mxCell>
        <mxCell id="3YTMskbqXqQKalDewWyd-590" style="edgeStyle=elbowEdgeStyle;rounded=0;elbow=vertical;html=1;labelBackgroundColor=none;startArrow=blockThin;startFill=1;startSize=4;endArrow=blockThin;endFill=1;endSize=4;jettySize=auto;orthogonalLoop=1;strokeColor=#4284F3;strokeWidth=2;fontSize=12;fontColor=#000000;align=center;dashed=0;entryX=1.007;entryY=0.467;entryDx=0;entryDy=0;entryPerimeter=0;flowAnimation=1;exitX=-0.009;exitY=0.52;exitDx=0;exitDy=0;exitPerimeter=0;" edge="1" parent="1" source="3YTMskbqXqQKalDewWyd-588" target="uoHBkqAiXrJTnw-RRtxm-620">
          <mxGeometry relative="1" as="geometry">
            <mxPoint x="934.5185000000001" y="386.3950266980153" as="sourcePoint" />
            <mxPoint x="934.75" y="421" as="targetPoint" />
          </mxGeometry>
        </mxCell>
        <mxCell id="3YTMskbqXqQKalDewWyd-591" value="" style="strokeColor=#dddddd;shadow=1;strokeWidth=1;rounded=1;absoluteArcSize=1;arcSize=2;" vertex="1" parent="1">
          <mxGeometry x="870" y="525" width="130" height="60" as="geometry" />
        </mxCell>
        <mxCell id="3YTMskbqXqQKalDewWyd-592" value="&lt;font color=&quot;#000000&quot;&gt;Employee&lt;br&gt;Database&lt;/font&gt;&lt;div&gt;&lt;font color=&quot;#000000&quot;&gt;PSQL&lt;/font&gt;&lt;/div&gt;" style="editableCssRules=.*;html=1;fontColor=#999999;shape=image;verticalLabelPosition=middle;verticalAlign=middle;labelPosition=right;align=left;spacingLeft=20;part=1;points=[];imageAspect=0;image=data:image/svg+xml,PHN2ZyB4bWxucz0iaHR0cDovL3d3dy53My5vcmcvMjAwMC9zdmciIHhtbG5zOnY9Imh0dHBzOi8vdmVjdGEuaW8vbmFubyIgd2lkdGg9IjIwIiBoZWlnaHQ9IjIwIiB2aWV3Qm94PSIwIDAgMjAgMjAiPiYjeGE7CTxzdHlsZSB0eXBlPSJ0ZXh0L2NzcyI+JiN4YTsJLnN0MHtmaWxsOiM0Mjg1ZjQ7fSYjeGE7CS5zdDF7ZmlsbDojNjY5ZGY2O30mI3hhOwkuc3Qye2ZpbGw6I2FlY2JmYTt9JiN4YTsJLnN0M3tmaWxsOiNmZmY7fSYjeGE7CTwvc3R5bGU+JiN4YTsJPHBhdGggY2xhc3M9InN0MCIgZD0iTTkgNmgydjEwSDl6Ii8+JiN4YTsJPHBhdGggY2xhc3M9InN0MSIgZD0iTTIwIDE3SDB2MmgyMHoiLz4mI3hhOwk8cGF0aCBjbGFzcz0ic3QyIiBkPSJNMTIgMTZIOHY0aDR6TTAgMGgyMHY2SDB6Ii8+JiN4YTsJPHBhdGggY2xhc3M9InN0MSIgZD0iTTEwIDBoMTB2NkgxMHoiLz4mI3hhOwk8cGF0aCBjbGFzcz0ic3QzIiBkPSJNMiAyaDJ2MkgyeiIvPiYjeGE7CTxwYXRoIGNsYXNzPSJzdDIiIGQ9Ik0wIDhoMjB2NkgweiIvPiYjeGE7CTxwYXRoIGNsYXNzPSJzdDEiIGQ9Ik0xMCA4aDEwdjZIMTB6Ii8+JiN4YTsJPHBhdGggY2xhc3M9InN0MyIgZD0iTTIgMTBoMnYySDJ6Ii8+JiN4YTs8L3N2Zz4=;" vertex="1" parent="3YTMskbqXqQKalDewWyd-591">
          <mxGeometry width="30" height="30" relative="1" as="geometry">
            <mxPoint x="15" y="15" as="offset" />
          </mxGeometry>
        </mxCell>
        <mxCell id="3YTMskbqXqQKalDewWyd-593" style="edgeStyle=elbowEdgeStyle;rounded=0;elbow=vertical;html=1;labelBackgroundColor=none;startArrow=blockThin;startFill=1;startSize=4;endArrow=blockThin;endFill=1;endSize=4;jettySize=auto;orthogonalLoop=1;strokeColor=#4284F3;strokeWidth=2;fontSize=12;fontColor=#000000;align=center;dashed=0;flowAnimation=1;exitX=-0.021;exitY=0.525;exitDx=0;exitDy=0;exitPerimeter=0;" edge="1" parent="1" source="3YTMskbqXqQKalDewWyd-591" target="uoHBkqAiXrJTnw-RRtxm-622">
          <mxGeometry relative="1" as="geometry">
            <mxPoint x="934.5185000000001" y="587.3950266980153" as="sourcePoint" />
            <mxPoint x="934.75" y="622" as="targetPoint" />
          </mxGeometry>
        </mxCell>
        <mxCell id="3YTMskbqXqQKalDewWyd-594" value="gRPC" style="text;html=1;align=center;verticalAlign=middle;whiteSpace=wrap;rounded=0;horizontal=0;" vertex="1" parent="1">
          <mxGeometry x="691" y="408" width="60" height="30" as="geometry" />
        </mxCell>
      </root>
    </mxGraphModel>
  </diagram>
</mxfile>
